<svg viewBox="0 0 32 32"><path d="M26 16c0 5.5-4.5 10-10 10S6 21.5 6 16 10.5 6 16 6s10 4.5 10 10z" fill="#FFC10A"/><g fill="#F44236"><path d="M16 1c-.6 0-1 .4-1 1v2c0 .6.4 1 1 1s1-.4 1-1V2c0-.6-.4-1-1-1zM16 27c-.6 0-1 .4-1 1v2c0 .6.4 1 1 1s1-.4 1-1v-2c0-.6-.4-1-1-1zM30 15h-2c-.6 0-1 .4-1 1s.4 1 1 1h2c.6 0 1-.4 1-1s-.4-1-1-1zM4 15H2c-.6 0-1 .4-1 1s.4 1 1 1h2c.6 0 1-.4 1-1s-.4-1-1-1zM25.2 5.4l-1.4 1.4c-.4.4-.4 1 0 1.4.2.2.5.3.7.3s.5-.1.7-.3l1.4-1.4c.4-.4.4-1 0-1.4s-1-.4-1.4 0zM6.8 23.8l-1.4 1.4c-.4.4-.4 1 0 1.4.2.2.5.3.7.3s.5-.1.7-.3l1.4-1.4c.4-.4.4-1 0-1.4s-1-.4-1.4 0zM6.8 5.4c-.4-.4-1-.4-1.4 0s-.4 1 0 1.4l1.4 1.4c.2.2.5.3.7.3s.5-.1.7-.3c.4-.4.4-1 0-1.4L6.8 5.4zM25.2 23.8c-.4-.4-1-.4-1.4 0s-.4 1 0 1.4l1.4 1.4c.2.2.5.3.7.3s.5-.1.7-.3c.4-.4.4-1 0-1.4l-1.4-1.4z"/></g></svg>